# xmcd
#
# Track frame offsets: 
#        150
#        15854
#        35837
#        52721
#        66653
#        89729
#        106066
#        124167
#        141186
#        155089
#        170570
#        190836
#        208409
#        225450
#        243742
#        262076
#        277629
#        292131
#        307697
#
# Disc length: 4299 seconds
#
# Revision: 2
# Processed by: cddbd v1.5.2PL0 Copyright (c) Steve Scherf et al.
# Submitted via: ExactAudioCopy v0.99pb5
#
DISCID=1810c913
DTITLE=Various Artist - Die erfolgreichsten Dauerbrenner - CD 2
DYEAR=2014
DGENRE=Pop
TTITLE0=Unheilig - Geboren um zu leben
TTITLE1=Silbermond - Das Beste
TTITLE2=Ich and Ich - Vom selben Stern
TTITLE3=Timbaland presents OneRepublic - Apologize
TTITLE4=Israel Kamakawiwo'ole - Somewhere over the rainbow - What a wo
TTITLE4=nderful world
TTITLE5=Alicia Keys - Empire state of mind (Part II) broken down
TTITLE6=Amy Winehouse - Back to black
TTITLE7=Alanis Morissette - Ironic
TTITLE8=Amy MacDonald - This is the life
TTITLE9=Sunrise Avenue - Fairytale gone bad
TTITLE10=Die Toten Hosen - Tage wie diese
TTITLE11=Ville Valo and Natalia Avelon - Summer wine
TTITLE12=Caro Emerald - A night like this
TTITLE13=Nelly Furtado - I'm like a bird
TTITLE14=Polarkreis 18 - Allein allein
TTITLE15=Stromae - Alors on danse
TTITLE16=Martin Solveig and Dragonette - Hello
TTITLE17=Bob Sinclar presents Goleo VI feat. Gary "Nesta" Pine - Love 
TTITLE17=generation
TTITLE18=Safri Duo - Played-a-live (The bongo song)
EXTD=
EXTT0=
EXTT1=
EXTT2=
EXTT3=
EXTT4=
EXTT5=
EXTT6=
EXTT7=
EXTT8=
EXTT9=
EXTT10=
EXTT11=
EXTT12=
EXTT13=
EXTT14=
EXTT15=
EXTT16=
EXTT17=
EXTT18=
PLAYORDER=
